<svg width="108" height="140" viewBox="0 0 108 140" fill="none" xmlns="http://www.w3.org/2000/svg">
<rect x="18.0103" y="14.3971" width="7.19855" height="7.19855" fill="#FBCB22"/>
<rect x="25.2089" y="20.5673" width="9.25527" height="9.25527" fill="url(#paint0_linear_468_767)"/>
<rect x="21.0955" width="7.19855" height="7.19855" fill="#FBCB22"/>
<rect x="40.6344" y="6.17017" width="6.17018" height="5.14182" fill="#FBCB22"/>
<rect x="45.7762" y="11.312" width="6.17018" height="5.14182" fill="#FBCB22"/>
<rect x="34.4642" y="17.4822" width="4.11346" height="4.11346" fill="#FBCB22"/>
<path fill-rule="evenodd" clip-rule="evenodd" d="M25.2089 30.5045C24.7414 30.7266 24.2184 30.8509 23.6664 30.8509C21.6785 30.8509 20.0671 29.2395 20.0671 27.2516C20.0671 26.6996 20.1914 26.1766 20.4135 25.7091H12.8685V87.3627C9.44065 85.0403 7.53231 81.8984 7.31493 78.1774C7.13502 75.0979 8.11806 71.7034 10.186 68.1841C11.2408 66.3889 10.0498 63.9319 7.9676 63.9351C7.22588 63.9362 6.52003 64.2688 6.06675 64.8559C1.83279 70.3399 -0.251376 75.6956 0.0241745 80.4123C0.3151 85.3923 3.22564 89.4751 8.44842 92.2297C13.6712 94.9842 21.0124 96.3082 29.6966 96.0619C38.3809 95.8156 48.086 94.008 57.7869 90.8302C67.4878 87.6523 76.8245 83.2221 84.811 78.0074C92.7975 72.7926 99.1374 66.9869 103.161 61.2034C107.185 55.4199 108.743 49.8732 107.671 45.1491C106.689 40.8223 103.534 37.3327 98.504 34.9825C97.6206 34.5698 96.5884 34.6947 95.784 35.2457C93.8515 36.5693 94.1858 39.5784 96.0292 41.0236C98.3399 42.8352 99.8325 45.0821 100.421 47.6773C101.349 51.7633 100.001 56.5608 96.5207 61.5631C95.2779 63.3493 93.7798 65.138 92.0526 66.905V25.7091H83.4793C83.7014 26.1766 83.8257 26.6996 83.8257 27.2516C83.8257 29.2395 82.2142 30.8509 80.2264 30.8509C78.2386 30.8509 76.6271 29.2395 76.6271 27.2516C76.6271 26.6996 76.7514 26.1766 76.9735 25.7091H73.1957C73.4178 26.1766 73.542 26.6996 73.542 27.2516C73.542 29.2395 71.9306 30.8509 69.9428 30.8509C67.9549 30.8509 66.3435 29.2395 66.3435 27.2516C66.3435 26.6996 66.4678 26.1766 66.6898 25.7091H61.8837C62.1058 26.1766 62.23 26.6996 62.23 27.2516C62.23 29.2395 60.6186 30.8509 58.6308 30.8509C56.6429 30.8509 55.0315 29.2395 55.0315 27.2516C55.0315 26.6996 55.1557 26.1766 55.3778 25.7091H50.5717C50.7938 26.1766 50.918 26.6996 50.918 27.2516C50.918 29.2395 49.3066 30.8509 47.3187 30.8509C45.3309 30.8509 43.7195 29.2395 43.7195 27.2516C43.7195 26.6996 43.8437 26.1766 44.0658 25.7091H39.2597C39.4817 26.1766 39.606 26.6996 39.606 27.2516C39.606 29.2395 37.9946 30.8509 36.0067 30.8509C35.4547 30.8509 34.9317 30.7266 34.4642 30.5045V35.9927H25.2089V30.5045ZM26.9193 28.7942H32.7538C32.5317 28.3267 32.4075 27.8037 32.4075 27.2516C32.4075 26.6996 32.5317 26.1766 32.7538 25.7091H26.9193C27.1414 26.1766 27.2656 26.6996 27.2656 27.2516C27.2656 27.8037 27.1414 28.3267 26.9193 28.7942ZM92.0526 74.9963C89.5521 77.0901 86.7836 79.133 83.7827 81.0924C75.7962 86.3072 66.4595 90.7374 56.7585 93.9152C47.0576 97.0931 37.3526 98.9006 28.6683 99.147C22.6778 99.3169 17.3264 98.7396 12.8685 97.4609V139.857H21.4418C21.2197 139.39 21.0954 138.867 21.0954 138.315C21.0954 136.327 22.7069 134.716 24.6947 134.716C26.6825 134.716 28.294 136.327 28.294 138.315C28.294 138.867 28.1697 139.39 27.9476 139.857H33.7822C33.5601 139.39 33.4358 138.867 33.4358 138.315C33.4358 136.327 35.0473 134.716 37.0351 134.716C39.0229 134.716 40.6344 136.327 40.6344 138.315C40.6344 138.867 40.5101 139.39 40.288 139.857H45.0942C44.8721 139.39 44.7478 138.867 44.7478 138.315C44.7478 136.327 46.3593 134.716 48.3471 134.716C50.3349 134.716 51.9464 136.327 51.9464 138.315C51.9464 138.867 51.8221 139.39 51.6 139.857H56.4062C56.1841 139.39 56.0598 138.867 56.0598 138.315C56.0598 136.327 57.6713 134.716 59.6591 134.716C61.6469 134.716 63.2584 136.327 63.2584 138.315C63.2584 138.867 63.1341 139.39 62.912 139.857H67.7182C67.4961 139.39 67.3718 138.867 67.3718 138.315C67.3718 136.327 68.9833 134.716 70.9711 134.716C72.9589 134.716 74.5704 136.327 74.5704 138.315C74.5704 138.867 74.4461 139.39 74.224 139.857H78.0019C77.7798 139.39 77.6555 138.867 77.6555 138.315C77.6555 136.327 79.2669 134.716 81.2548 134.716C83.2426 134.716 84.854 136.327 84.854 138.315C84.854 138.867 84.7297 139.39 84.5076 139.857H92.0526V74.9963ZM16.982 37.0211H24.1806V44.2197H16.982V37.0211ZM48.8613 41.1346H58.1166V50.3898H48.8613V41.1346ZM48.8613 41.1346L44.7478 41.1346V37.0211H48.8613L48.8613 41.1346ZM37.5493 46.2764H41.6627V50.3898H37.5493V46.2764ZM33.4358 37.0211H37.5493V41.1346H33.4358V37.0211Z" fill="url(#paint1_linear_468_767)"/>
<rect x="27.2657" y="6.17017" width="6.17018" height="5.14182" fill="#FBCB22"/>
<rect x="7.72673" y="11.312" width="4.11346" height="5.14182" fill="#FBCB22"/>
<rect x="4.64163" y="8.22693" width="3.08509" height="3.08509" fill="#FBCB22"/>
<rect x="11.8402" y="6.17017" width="4.11346" height="5.14182" fill="#FBCB22"/>
<path d="M48.6393 78.4929C47.1507 78.2764 45.965 79.719 46.4655 81.1375L54.7454 104.604C55.2459 106.022 57.0744 106.401 58.0975 105.298L76.2986 85.6824C77.3948 84.501 76.7151 82.5747 75.1203 82.3429L48.6393 78.4929Z" fill="white"/>
<defs>
<linearGradient id="paint0_linear_468_767" x1="29.8365" y1="20.5673" x2="29.8365" y2="29.8225" gradientUnits="userSpaceOnUse">
<stop stop-color="#FBCB22"/>
<stop offset="1" stop-color="#EFADAB"/>
</linearGradient>
<linearGradient id="paint1_linear_468_767" x1="53.8517" y1="27.8459" x2="40.4522" y2="217.952" gradientUnits="userSpaceOnUse">
<stop stop-color="#FBCB22"/>
<stop offset="0.744792" stop-color="#FF1E57" stop-opacity="0.140625"/>
<stop offset="1" stop-color="#FF005B" stop-opacity="0"/>
</linearGradient>
</defs>
</svg>
