<svg xmlns="http://www.w3.org/2000/svg" xmlns:xlink="http://www.w3.org/1999/xlink" width="500" zoomAndPan="magnify" viewBox="0 0 375 374.999991" height="500" preserveAspectRatio="xMidYMid meet" version="1.0"><defs><g/></defs><g fill="#5995fd" fill-opacity="1"><g transform="translate(83.462278, 206.230386)"><g><path d="M 24.21875 -8.15625 C 24.21875 -7.5 24.046875 -6.859375 23.703125 -6.234375 C 23.359375 -5.648438 22.546875 -4.957031 21.265625 -4.15625 C 19.984375 -3.363281 18.5625 -2.609375 17 -1.890625 C 15.4375 -1.179688 13.925781 -0.578125 12.46875 -0.078125 C 11.019531 0.421875 9.945312 0.671875 9.25 0.671875 C 8.769531 0.671875 8.195312 0.554688 7.53125 0.328125 C 6.875 0.109375 6.21875 -0.171875 5.5625 -0.515625 C 4.90625 -0.867188 4.304688 -1.269531 3.765625 -1.71875 C 3.234375 -2.164062 2.84375 -2.597656 2.59375 -3.015625 C 2.457031 -3.253906 2.328125 -3.738281 2.203125 -4.46875 C 2.085938 -5.195312 1.984375 -6.046875 1.890625 -7.015625 C 1.804688 -7.984375 1.726562 -9.015625 1.65625 -10.109375 C 1.59375 -11.203125 1.535156 -12.242188 1.484375 -13.234375 C 1.429688 -14.222656 1.394531 -15.097656 1.375 -15.859375 C 1.363281 -16.617188 1.359375 -17.171875 1.359375 -17.515625 C 1.359375 -18.796875 1.398438 -20.269531 1.484375 -21.9375 C 1.566406 -23.601562 1.726562 -25.273438 1.96875 -26.953125 C 2.21875 -28.628906 2.578125 -30.238281 3.046875 -31.78125 C 3.515625 -33.332031 4.144531 -34.644531 4.9375 -35.71875 C 5.175781 -36.03125 5.660156 -36.359375 6.390625 -36.703125 C 7.117188 -37.046875 7.976562 -37.375 8.96875 -37.6875 C 9.957031 -38 11.019531 -38.289062 12.15625 -38.5625 C 13.300781 -38.84375 14.398438 -39.078125 15.453125 -39.265625 C 16.515625 -39.460938 17.476562 -39.617188 18.34375 -39.734375 C 19.21875 -39.859375 19.878906 -39.921875 20.328125 -39.921875 C 20.847656 -39.921875 21.34375 -39.804688 21.8125 -39.578125 C 22.28125 -39.359375 22.675781 -39.054688 23 -38.671875 C 23.332031 -38.296875 23.59375 -37.875 23.78125 -37.40625 C 23.96875 -36.9375 24.0625 -36.441406 24.0625 -35.921875 C 24.0625 -35.472656 24 -35.09375 23.875 -34.78125 C 23.757812 -34.46875 23.582031 -34.117188 23.34375 -33.734375 C 23 -33.285156 22.269531 -32.75 21.15625 -32.125 C 20.050781 -31.5 18.847656 -30.882812 17.546875 -30.28125 C 16.242188 -29.675781 14.992188 -29.128906 13.796875 -28.640625 C 12.609375 -28.160156 11.769531 -27.816406 11.28125 -27.609375 C 11.144531 -26.804688 11 -26 10.84375 -25.1875 C 10.6875 -24.375 10.570312 -23.550781 10.5 -22.71875 C 11.570312 -23.269531 12.785156 -23.785156 14.140625 -24.265625 C 15.492188 -24.753906 16.773438 -25 17.984375 -25 C 20.441406 -25 21.671875 -23.785156 21.671875 -21.359375 C 21.671875 -20.773438 21.554688 -20.253906 21.328125 -19.796875 C 21.109375 -19.347656 20.816406 -18.953125 20.453125 -18.609375 C 20.085938 -18.265625 19.671875 -17.960938 19.203125 -17.703125 C 18.734375 -17.441406 18.273438 -17.191406 17.828125 -16.953125 C 16.722656 -16.359375 15.5625 -15.84375 14.34375 -15.40625 C 13.132812 -14.976562 11.921875 -14.554688 10.703125 -14.140625 C 10.640625 -13.859375 10.570312 -13.550781 10.5 -13.21875 C 10.425781 -12.894531 10.390625 -12.578125 10.390625 -12.265625 C 10.390625 -11.785156 10.425781 -11.300781 10.5 -10.8125 C 10.570312 -10.320312 10.640625 -9.835938 10.703125 -9.359375 C 11.117188 -9.492188 11.785156 -9.71875 12.703125 -10.03125 C 13.628906 -10.34375 14.59375 -10.65625 15.59375 -10.96875 C 16.601562 -11.28125 17.570312 -11.546875 18.5 -11.765625 C 19.4375 -11.992188 20.132812 -12.109375 20.59375 -12.109375 C 21.101562 -12.109375 21.582031 -11.992188 22.03125 -11.765625 C 22.488281 -11.546875 22.875 -11.253906 23.1875 -10.890625 C 23.5 -10.523438 23.75 -10.097656 23.9375 -9.609375 C 24.125 -9.128906 24.21875 -8.644531 24.21875 -8.15625 Z M 24.21875 -8.15625 "/></g></g></g><g fill="#5995fd" fill-opacity="1"><g transform="translate(108.464206, 206.230386)"><g><path d="M 23.96875 -18.609375 C 23.0625 -16.222656 22.070312 -13.726562 21 -11.125 C 19.925781 -8.519531 18.765625 -6.09375 17.515625 -3.84375 C 16.753906 -2.457031 15.90625 -1.304688 14.96875 -0.390625 C 14.03125 0.523438 12.957031 0.984375 11.75 0.984375 C 10.78125 0.984375 9.832031 0.492188 8.90625 -0.484375 C 7.988281 -1.472656 7.140625 -2.648438 6.359375 -4.015625 C 5.585938 -5.390625 4.914062 -6.78125 4.34375 -8.1875 C 3.769531 -9.59375 3.34375 -10.710938 3.0625 -11.546875 C 2.789062 -12.472656 2.476562 -13.472656 2.125 -14.546875 C 1.78125 -15.628906 1.472656 -16.722656 1.203125 -17.828125 C 0.921875 -18.941406 0.691406 -20.039062 0.515625 -21.125 C 0.347656 -22.21875 0.265625 -23.25 0.265625 -24.21875 C 0.265625 -25.570312 0.503906 -26.679688 0.984375 -27.546875 C 1.472656 -28.421875 2.425781 -28.859375 3.84375 -28.859375 C 4.394531 -28.859375 4.894531 -28.691406 5.34375 -28.359375 C 5.800781 -28.023438 6.21875 -27.5625 6.59375 -26.96875 C 6.976562 -26.382812 7.34375 -25.703125 7.6875 -24.921875 C 8.039062 -24.148438 8.375 -23.296875 8.6875 -22.359375 C 9 -21.453125 9.289062 -20.515625 9.5625 -19.546875 C 9.84375 -18.578125 10.117188 -17.640625 10.390625 -16.734375 C 10.671875 -15.835938 10.957031 -14.960938 11.25 -14.109375 C 11.550781 -13.265625 11.941406 -12.425781 12.421875 -11.59375 C 12.660156 -12.21875 12.9375 -12.925781 13.25 -13.71875 C 13.5625 -14.519531 13.898438 -15.367188 14.265625 -16.265625 C 14.628906 -17.171875 15.019531 -18.097656 15.4375 -19.046875 C 15.851562 -20.003906 16.304688 -20.929688 16.796875 -21.828125 C 17.734375 -23.703125 18.726562 -25.296875 19.78125 -26.609375 C 20.832031 -27.929688 21.878906 -28.59375 22.921875 -28.59375 C 23.890625 -28.59375 24.582031 -28.296875 25 -27.703125 C 25.414062 -27.117188 25.625 -26.359375 25.625 -25.421875 C 25.625 -24.484375 25.46875 -23.425781 25.15625 -22.25 C 24.84375 -21.070312 24.445312 -19.859375 23.96875 -18.609375 Z M 23.96875 -18.609375 "/></g></g></g><g fill="#5995fd" fill-opacity="1"><g transform="translate(134.349779, 206.230386)"><g><path d="M 23.34375 -9.25 C 23.34375 -8.070312 22.96875 -6.921875 22.21875 -5.796875 C 21.476562 -4.671875 20.546875 -3.664062 19.421875 -2.78125 C 18.296875 -1.894531 17.085938 -1.179688 15.796875 -0.640625 C 14.515625 -0.109375 13.335938 0.15625 12.265625 0.15625 C 10.429688 0.15625 8.796875 -0.300781 7.359375 -1.21875 C 5.921875 -2.132812 4.710938 -3.300781 3.734375 -4.71875 C 2.765625 -6.144531 2.03125 -7.71875 1.53125 -9.4375 C 1.03125 -11.15625 0.78125 -12.828125 0.78125 -14.453125 C 0.78125 -16.179688 1.019531 -18.035156 1.5 -20.015625 C 1.988281 -21.992188 2.726562 -23.8125 3.71875 -25.46875 C 4.707031 -27.132812 5.953125 -28.519531 7.453125 -29.625 C 8.960938 -30.738281 10.757812 -31.296875 12.84375 -31.296875 C 14.019531 -31.296875 15.144531 -31.09375 16.21875 -30.6875 C 17.289062 -30.289062 18.222656 -29.726562 19.015625 -29 C 19.816406 -28.28125 20.457031 -27.414062 20.9375 -26.40625 C 21.425781 -25.40625 21.671875 -24.28125 21.671875 -23.03125 C 21.671875 -21.40625 21.320312 -19.878906 20.625 -18.453125 C 19.9375 -17.035156 19.019531 -15.804688 17.875 -14.765625 C 16.738281 -13.722656 15.425781 -12.878906 13.9375 -12.234375 C 12.445312 -11.597656 10.921875 -11.242188 9.359375 -11.171875 C 9.492188 -10.171875 9.898438 -9.441406 10.578125 -8.984375 C 11.253906 -8.535156 12.0625 -8.3125 13 -8.3125 C 13.6875 -8.3125 14.359375 -8.484375 15.015625 -8.828125 C 15.679688 -9.179688 16.328125 -9.570312 16.953125 -10 C 17.578125 -10.4375 18.191406 -10.828125 18.796875 -11.171875 C 19.398438 -11.523438 20.015625 -11.703125 20.640625 -11.703125 C 21.328125 -11.703125 21.945312 -11.472656 22.5 -11.015625 C 23.0625 -10.566406 23.34375 -9.976562 23.34375 -9.25 Z M 14.921875 -21.984375 C 14.921875 -22.441406 14.796875 -22.910156 14.546875 -23.390625 C 14.304688 -23.878906 13.925781 -24.125 13.40625 -24.125 C 12.644531 -24.125 12.003906 -23.921875 11.484375 -23.515625 C 10.960938 -23.117188 10.53125 -22.617188 10.1875 -22.015625 C 9.84375 -21.410156 9.570312 -20.757812 9.375 -20.0625 C 9.1875 -19.375 9.078125 -18.734375 9.046875 -18.140625 C 9.535156 -18.242188 10.113281 -18.378906 10.78125 -18.546875 C 11.457031 -18.722656 12.097656 -18.957031 12.703125 -19.25 C 13.316406 -19.550781 13.835938 -19.925781 14.265625 -20.375 C 14.703125 -20.820312 14.921875 -21.359375 14.921875 -21.984375 Z M 14.921875 -21.984375 "/></g></g></g><g fill="#5995fd" fill-opacity="1"><g transform="translate(158.208168, 206.230386)"><g><path d="M 16.328125 1.453125 C 15.734375 1.453125 15.265625 1.179688 14.921875 0.640625 C 14.578125 0.109375 14.316406 -0.5 14.140625 -1.1875 C 13.960938 -1.882812 13.847656 -2.585938 13.796875 -3.296875 C 13.742188 -4.003906 13.71875 -4.550781 13.71875 -4.9375 C 13.71875 -5.976562 13.78125 -7.019531 13.90625 -8.0625 C 14.03125 -9.101562 14.171875 -10.140625 14.328125 -11.171875 C 14.484375 -12.210938 14.617188 -13.253906 14.734375 -14.296875 C 14.859375 -15.335938 14.921875 -16.378906 14.921875 -17.421875 C 14.921875 -17.835938 14.898438 -18.285156 14.859375 -18.765625 C 14.828125 -19.253906 14.75 -19.710938 14.625 -20.140625 C 14.507812 -20.578125 14.3125 -20.929688 14.03125 -21.203125 C 13.757812 -21.484375 13.394531 -21.625 12.9375 -21.625 C 12.632812 -21.625 12.289062 -21.375 11.90625 -20.875 C 11.519531 -20.375 11.160156 -19.800781 10.828125 -19.15625 C 10.503906 -18.519531 10.226562 -17.878906 10 -17.234375 C 9.78125 -16.585938 9.671875 -16.109375 9.671875 -15.796875 C 9.671875 -15.035156 9.675781 -14.265625 9.6875 -13.484375 C 9.707031 -12.710938 9.71875 -11.925781 9.71875 -11.125 L 9.71875 -8.109375 C 9.6875 -7.484375 9.632812 -6.84375 9.5625 -6.1875 C 9.5 -5.53125 9.394531 -4.890625 9.25 -4.265625 C 9.144531 -3.640625 8.988281 -3.039062 8.78125 -2.46875 C 8.570312 -1.894531 8.300781 -1.390625 7.96875 -0.953125 C 7.644531 -0.523438 7.257812 -0.175781 6.8125 0.09375 C 6.363281 0.375 5.828125 0.515625 5.203125 0.515625 C 4.503906 0.515625 3.929688 0.289062 3.484375 -0.15625 C 3.035156 -0.601562 2.671875 -1.179688 2.390625 -1.890625 C 2.109375 -2.609375 1.90625 -3.40625 1.78125 -4.28125 C 1.664062 -5.164062 1.582031 -6.03125 1.53125 -6.875 C 1.476562 -7.726562 1.457031 -8.507812 1.46875 -9.21875 C 1.488281 -9.9375 1.5 -10.503906 1.5 -10.921875 L 1.5 -13.359375 C 1.5 -14.679688 1.472656 -15.984375 1.421875 -17.265625 C 1.378906 -18.546875 1.359375 -19.828125 1.359375 -21.109375 C 1.359375 -21.796875 1.363281 -22.675781 1.375 -23.75 C 1.394531 -24.832031 1.523438 -25.882812 1.765625 -26.90625 C 2.003906 -27.925781 2.398438 -28.800781 2.953125 -29.53125 C 3.515625 -30.257812 4.332031 -30.625 5.40625 -30.625 C 5.894531 -30.625 6.328125 -30.46875 6.703125 -30.15625 C 7.085938 -29.84375 7.425781 -29.457031 7.71875 -29 C 8.007812 -28.550781 8.25 -28.066406 8.4375 -27.546875 C 8.632812 -27.023438 8.785156 -26.578125 8.890625 -26.203125 C 9.234375 -26.679688 9.640625 -27.144531 10.109375 -27.59375 C 10.578125 -28.050781 11.101562 -28.453125 11.6875 -28.796875 C 12.28125 -29.148438 12.941406 -29.425781 13.671875 -29.625 C 14.398438 -29.832031 15.234375 -29.9375 16.171875 -29.9375 C 17.929688 -29.9375 19.304688 -29.507812 20.296875 -28.65625 C 21.285156 -27.8125 22.015625 -26.757812 22.484375 -25.5 C 22.953125 -24.238281 23.238281 -22.878906 23.34375 -21.421875 C 23.445312 -19.960938 23.5 -18.644531 23.5 -17.46875 C 23.5 -16.875 23.445312 -15.992188 23.34375 -14.828125 C 23.238281 -13.671875 23.070312 -12.390625 22.84375 -10.984375 C 22.625 -9.585938 22.320312 -8.148438 21.9375 -6.671875 C 21.550781 -5.203125 21.097656 -3.859375 20.578125 -2.640625 C 20.066406 -1.429688 19.453125 -0.445312 18.734375 0.3125 C 18.023438 1.070312 17.222656 1.453125 16.328125 1.453125 Z M 16.328125 1.453125 "/></g></g></g><g fill="#5995fd" fill-opacity="1"><g transform="translate(183.05416, 206.230386)"><g><path d="M 13.671875 1.875 C 11.210938 1.875 9.296875 1.550781 7.921875 0.90625 C 6.554688 0.269531 5.535156 -0.632812 4.859375 -1.8125 C 4.179688 -3 3.773438 -4.421875 3.640625 -6.078125 C 3.503906 -7.742188 3.4375 -9.597656 3.4375 -11.640625 C 3.4375 -13.273438 3.488281 -14.914062 3.59375 -16.5625 C 3.695312 -18.207031 3.851562 -19.960938 4.0625 -21.828125 C 3.570312 -21.828125 3.1875 -21.816406 2.90625 -21.796875 C 2.632812 -21.785156 2.410156 -21.78125 2.234375 -21.78125 C 1.128906 -21.78125 0.171875 -22.019531 -0.640625 -22.5 C -1.460938 -22.988281 -1.875 -23.738281 -1.875 -24.75 C -1.875 -25.375 -1.640625 -25.925781 -1.171875 -26.40625 C -0.703125 -26.894531 -0.101562 -27.3125 0.625 -27.65625 C 1.351562 -28 2.140625 -28.273438 2.984375 -28.484375 C 3.835938 -28.691406 4.644531 -28.832031 5.40625 -28.90625 C 5.40625 -29.875 5.472656 -30.945312 5.609375 -32.125 C 5.753906 -33.300781 6.007812 -34.398438 6.375 -35.421875 C 6.738281 -36.453125 7.226562 -37.3125 7.84375 -38 C 8.46875 -38.695312 9.265625 -39.046875 10.234375 -39.046875 C 10.796875 -39.046875 11.289062 -38.878906 11.71875 -38.546875 C 12.15625 -38.210938 12.507812 -37.796875 12.78125 -37.296875 C 13.0625 -36.796875 13.269531 -36.234375 13.40625 -35.609375 C 13.550781 -34.984375 13.625 -34.378906 13.625 -33.796875 C 13.625 -33.097656 13.570312 -32.382812 13.46875 -31.65625 C 13.363281 -30.925781 13.171875 -30.023438 12.890625 -28.953125 C 13.484375 -29.023438 13.882812 -29.066406 14.09375 -29.078125 C 14.300781 -29.097656 14.488281 -29.109375 14.65625 -29.109375 C 15.25 -29.109375 15.863281 -29.054688 16.5 -28.953125 C 17.144531 -28.847656 17.734375 -28.675781 18.265625 -28.4375 C 18.804688 -28.195312 19.25 -27.875 19.59375 -27.46875 C 19.945312 -27.070312 20.125 -26.597656 20.125 -26.046875 C 20.125 -25.421875 19.867188 -24.863281 19.359375 -24.375 C 18.859375 -23.894531 18.226562 -23.476562 17.46875 -23.125 C 16.707031 -22.78125 15.890625 -22.515625 15.015625 -22.328125 C 14.148438 -22.140625 13.335938 -22.007812 12.578125 -21.9375 C 12.367188 -20.519531 12.222656 -19.210938 12.140625 -18.015625 C 12.054688 -16.816406 11.960938 -15.613281 11.859375 -14.40625 C 11.785156 -13.8125 11.722656 -13.210938 11.671875 -12.609375 C 11.617188 -12.003906 11.59375 -11.390625 11.59375 -10.765625 C 11.59375 -10.304688 11.609375 -9.773438 11.640625 -9.171875 C 11.679688 -8.566406 11.804688 -7.988281 12.015625 -7.4375 C 12.222656 -6.882812 12.550781 -6.40625 13 -6 C 13.445312 -5.601562 14.070312 -5.40625 14.875 -5.40625 C 15.351562 -5.40625 15.851562 -5.445312 16.375 -5.53125 C 16.894531 -5.625 17.414062 -5.671875 17.9375 -5.671875 C 18.832031 -5.671875 19.476562 -5.359375 19.875 -4.734375 C 20.28125 -4.109375 20.484375 -3.3125 20.484375 -2.34375 C 20.484375 -1.613281 20.265625 -0.976562 19.828125 -0.4375 C 19.398438 0.09375 18.851562 0.523438 18.1875 0.859375 C 17.53125 1.191406 16.796875 1.441406 15.984375 1.609375 C 15.171875 1.785156 14.398438 1.875 13.671875 1.875 Z M 13.671875 1.875 "/></g></g></g><g fill="#5995fd" fill-opacity="1"><g transform="translate(203.014119, 206.230386)"><g><path d="M 24.0625 -35.5 C 24.0625 -34.632812 23.722656 -33.847656 23.046875 -33.140625 C 22.378906 -32.429688 21.566406 -31.804688 20.609375 -31.265625 C 19.660156 -30.734375 18.679688 -30.289062 17.671875 -29.9375 C 16.671875 -29.59375 15.84375 -29.351562 15.1875 -29.21875 C 14.90625 -26.550781 14.6875 -23.890625 14.53125 -21.234375 C 14.375 -18.585938 14.296875 -15.925781 14.296875 -13.25 C 14.296875 -11.832031 14.328125 -10.429688 14.390625 -9.046875 C 14.460938 -7.660156 14.5 -6.273438 14.5 -4.890625 C 14.5 -4.265625 14.4375 -3.578125 14.3125 -2.828125 C 14.195312 -2.085938 13.988281 -1.382812 13.6875 -0.71875 C 13.394531 -0.0625 12.988281 0.488281 12.46875 0.9375 C 11.957031 1.382812 11.316406 1.609375 10.546875 1.609375 C 9.648438 1.609375 8.929688 1.359375 8.390625 0.859375 C 7.859375 0.359375 7.441406 -0.253906 7.140625 -0.984375 C 6.847656 -1.710938 6.648438 -2.484375 6.546875 -3.296875 C 6.441406 -4.109375 6.390625 -4.847656 6.390625 -5.515625 C 6.328125 -7.585938 6.273438 -9.671875 6.234375 -11.765625 C 6.203125 -13.867188 6.1875 -15.976562 6.1875 -18.09375 C 6.1875 -19.863281 6.191406 -21.597656 6.203125 -23.296875 C 6.222656 -24.992188 6.234375 -26.722656 6.234375 -28.484375 C 5.753906 -28.421875 5.257812 -28.367188 4.75 -28.328125 C 4.25 -28.296875 3.738281 -28.28125 3.21875 -28.28125 C 2.800781 -28.28125 2.253906 -28.320312 1.578125 -28.40625 C 0.910156 -28.5 0.265625 -28.65625 -0.359375 -28.875 C -0.984375 -29.101562 -1.519531 -29.414062 -1.96875 -29.8125 C -2.425781 -30.207031 -2.65625 -30.71875 -2.65625 -31.34375 C -2.65625 -32.382812 -2.242188 -33.296875 -1.421875 -34.078125 C -0.609375 -34.859375 0.425781 -35.535156 1.6875 -36.109375 C 2.957031 -36.679688 4.363281 -37.164062 5.90625 -37.5625 C 7.445312 -37.957031 8.96875 -38.265625 10.46875 -38.484375 C 11.976562 -38.710938 13.363281 -38.878906 14.625 -38.984375 C 15.894531 -39.085938 16.878906 -39.140625 17.578125 -39.140625 C 18.234375 -39.140625 18.929688 -39.113281 19.671875 -39.0625 C 20.421875 -39.007812 21.125 -38.863281 21.78125 -38.625 C 22.4375 -38.382812 22.976562 -38.019531 23.40625 -37.53125 C 23.84375 -37.050781 24.0625 -36.375 24.0625 -35.5 Z M 24.0625 -35.5 "/></g></g></g><g fill="#5995fd" fill-opacity="1"><g transform="translate(222.818142, 206.230386)"><g><path d="M 19.59375 -19.4375 C 19.113281 -19.40625 18.695312 -19.445312 18.34375 -19.5625 C 18 -19.6875 17.65625 -19.820312 17.3125 -19.96875 C 17 -20.101562 16.6875 -20.226562 16.375 -20.34375 C 16.0625 -20.46875 15.71875 -20.515625 15.34375 -20.484375 C 14.644531 -20.453125 14.023438 -20.257812 13.484375 -19.90625 C 12.953125 -19.5625 12.46875 -19.128906 12.03125 -18.609375 C 11.601562 -18.085938 11.234375 -17.503906 10.921875 -16.859375 C 10.609375 -16.222656 10.363281 -15.59375 10.1875 -14.96875 C 10.082031 -14.550781 10.003906 -13.914062 9.953125 -13.0625 C 9.898438 -12.21875 9.875 -11.3125 9.875 -10.34375 C 9.84375 -9.34375 9.828125 -8.390625 9.828125 -7.484375 C 9.828125 -6.585938 9.789062 -5.878906 9.71875 -5.359375 C 9.6875 -4.796875 9.597656 -4.140625 9.453125 -3.390625 C 9.316406 -2.648438 9.101562 -1.953125 8.8125 -1.296875 C 8.519531 -0.640625 8.128906 -0.0859375 7.640625 0.359375 C 7.160156 0.816406 6.535156 1.046875 5.765625 1.046875 C 5.179688 1.046875 4.671875 0.867188 4.234375 0.515625 C 3.804688 0.171875 3.441406 -0.285156 3.140625 -0.859375 C 2.847656 -1.429688 2.601562 -2.097656 2.40625 -2.859375 C 2.21875 -3.617188 2.070312 -4.398438 1.96875 -5.203125 C 1.863281 -6.035156 1.785156 -6.863281 1.734375 -7.6875 C 1.679688 -8.519531 1.644531 -9.304688 1.625 -10.046875 C 1.613281 -10.796875 1.613281 -11.484375 1.625 -12.109375 C 1.644531 -12.734375 1.65625 -13.238281 1.65625 -13.625 C 1.625 -14.832031 1.566406 -16.050781 1.484375 -17.28125 C 1.398438 -18.507812 1.359375 -19.734375 1.359375 -20.953125 C 1.359375 -21.710938 1.390625 -22.5625 1.453125 -23.5 C 1.523438 -24.4375 1.71875 -25.3125 2.03125 -26.125 C 2.34375 -26.9375 2.800781 -27.617188 3.40625 -28.171875 C 4.007812 -28.734375 4.847656 -29.015625 5.921875 -29.015625 C 6.515625 -29.015625 7.019531 -28.820312 7.4375 -28.4375 C 7.851562 -28.050781 8.191406 -27.582031 8.453125 -27.03125 C 8.710938 -26.476562 8.910156 -25.890625 9.046875 -25.265625 C 9.179688 -24.640625 9.269531 -24.066406 9.3125 -23.546875 C 10.132812 -24.898438 11.066406 -26 12.109375 -26.84375 C 13.148438 -27.695312 14.503906 -28.160156 16.171875 -28.234375 C 17.003906 -28.265625 17.828125 -28.179688 18.640625 -27.984375 C 19.453125 -27.796875 20.195312 -27.484375 20.875 -27.046875 C 21.550781 -26.617188 22.101562 -26.054688 22.53125 -25.359375 C 22.96875 -24.671875 23.203125 -23.859375 23.234375 -22.921875 C 23.304688 -21.816406 22.976562 -20.96875 22.25 -20.375 C 21.519531 -19.789062 20.632812 -19.476562 19.59375 -19.4375 Z M 19.59375 -19.4375 "/></g></g></g><g fill="#5995fd" fill-opacity="1"><g transform="translate(245.273096, 206.230386)"><g><path d="M 23.65625 -7.328125 C 23.65625 -6.703125 23.628906 -5.882812 23.578125 -4.875 C 23.523438 -3.875 23.375 -2.894531 23.125 -1.9375 C 22.882812 -0.988281 22.503906 -0.171875 21.984375 0.515625 C 21.460938 1.210938 20.738281 1.5625 19.8125 1.5625 C 18.53125 1.5625 17.539062 1.144531 16.84375 0.3125 C 16.144531 -0.519531 15.816406 -1.5625 15.859375 -2.8125 C 14.742188 -1.84375 13.484375 -1.078125 12.078125 -0.515625 C 10.679688 0.0351562 9.253906 0.3125 7.796875 0.3125 C 6.796875 0.3125 5.84375 0.0703125 4.9375 -0.40625 C 4.039062 -0.894531 3.242188 -1.519531 2.546875 -2.28125 C 1.847656 -3.050781 1.289062 -3.910156 0.875 -4.859375 C 0.46875 -5.816406 0.265625 -6.757812 0.265625 -7.6875 C 0.265625 -9.351562 0.773438 -10.8125 1.796875 -12.0625 C 2.816406 -13.3125 4.070312 -14.375 5.5625 -15.25 C 7.050781 -16.132812 8.632812 -16.835938 10.3125 -17.359375 C 12 -17.878906 13.5 -18.226562 14.8125 -18.40625 C 14.8125 -18.570312 14.820312 -18.722656 14.84375 -18.859375 C 14.863281 -19.003906 14.875 -19.164062 14.875 -19.34375 C 14.875 -20.414062 14.578125 -21.28125 13.984375 -21.9375 C 13.390625 -22.59375 12.554688 -22.921875 11.484375 -22.921875 C 10.617188 -22.921875 9.875 -22.773438 9.25 -22.484375 C 8.625 -22.191406 8.035156 -21.863281 7.484375 -21.5 C 6.929688 -21.132812 6.375 -20.800781 5.8125 -20.5 C 5.257812 -20.207031 4.640625 -20.0625 3.953125 -20.0625 C 3.191406 -20.0625 2.539062 -20.300781 2 -20.78125 C 1.46875 -21.269531 1.203125 -21.898438 1.203125 -22.671875 C 1.203125 -23.804688 1.535156 -24.84375 2.203125 -25.78125 C 2.878906 -26.71875 3.726562 -27.503906 4.75 -28.140625 C 5.78125 -28.785156 6.890625 -29.289062 8.078125 -29.65625 C 9.273438 -30.019531 10.378906 -30.203125 11.390625 -30.203125 C 12.316406 -30.203125 13.25 -30.085938 14.1875 -29.859375 C 15.125 -29.640625 16.007812 -29.296875 16.84375 -28.828125 C 17.675781 -28.359375 18.429688 -27.785156 19.109375 -27.109375 C 19.785156 -26.429688 20.332031 -25.644531 20.75 -24.75 C 21.363281 -23.46875 21.863281 -22.101562 22.25 -20.65625 C 22.632812 -19.21875 22.929688 -17.742188 23.140625 -16.234375 C 23.347656 -14.734375 23.484375 -13.226562 23.546875 -11.71875 C 23.617188 -10.21875 23.65625 -8.753906 23.65625 -7.328125 Z M 15.34375 -9 L 15.1875 -12.53125 C 15.113281 -12.53125 15.039062 -12.535156 14.96875 -12.546875 C 14.90625 -12.566406 14.835938 -12.578125 14.765625 -12.578125 C 14.316406 -12.578125 13.753906 -12.460938 13.078125 -12.234375 C 12.398438 -12.015625 11.75 -11.703125 11.125 -11.296875 C 10.5 -10.898438 9.96875 -10.457031 9.53125 -9.96875 C 9.101562 -9.488281 8.890625 -8.988281 8.890625 -8.46875 C 8.890625 -7.988281 9.0625 -7.660156 9.40625 -7.484375 C 9.75 -7.304688 10.148438 -7.21875 10.609375 -7.21875 C 11.367188 -7.21875 12.179688 -7.414062 13.046875 -7.8125 C 13.910156 -8.21875 14.675781 -8.613281 15.34375 -9 Z M 15.34375 -9 "/></g></g></g><g fill="#5995fd" fill-opacity="1"><g transform="translate(270.482941, 206.230386)"><g><path d="M 12.84375 15.125 C 12.007812 15.125 11.0625 14.992188 10 14.734375 C 8.945312 14.472656 7.953125 14.097656 7.015625 13.609375 C 6.078125 13.128906 5.285156 12.539062 4.640625 11.84375 C 4.003906 11.15625 3.6875 10.363281 3.6875 9.46875 C 3.6875 9.113281 3.769531 8.765625 3.9375 8.421875 C 4.113281 8.078125 4.347656 7.773438 4.640625 7.515625 C 4.941406 7.253906 5.265625 7.046875 5.609375 6.890625 C 5.960938 6.734375 6.328125 6.65625 6.703125 6.65625 C 7.117188 6.65625 7.523438 6.710938 7.921875 6.828125 C 8.328125 6.953125 8.738281 7.101562 9.15625 7.28125 C 9.601562 7.445312 10.039062 7.597656 10.46875 7.734375 C 10.90625 7.878906 11.367188 7.953125 11.859375 7.953125 C 12.722656 7.953125 13.472656 7.65625 14.109375 7.0625 C 14.753906 6.476562 15.300781 5.707031 15.75 4.75 C 16.195312 3.800781 16.5625 2.742188 16.84375 1.578125 C 17.125 0.421875 17.34375 -0.726562 17.5 -1.875 C 17.65625 -3.019531 17.765625 -4.09375 17.828125 -5.09375 C 17.898438 -6.101562 17.953125 -6.914062 17.984375 -7.53125 C 16.773438 -5.695312 15.570312 -4.285156 14.375 -3.296875 C 13.175781 -2.304688 11.710938 -1.8125 9.984375 -1.8125 C 8.660156 -1.8125 7.503906 -2.085938 6.515625 -2.640625 C 5.535156 -3.203125 4.695312 -3.929688 4 -4.828125 C 3.3125 -5.734375 2.738281 -6.765625 2.28125 -7.921875 C 1.832031 -9.085938 1.492188 -10.289062 1.265625 -11.53125 C 1.046875 -12.78125 0.898438 -14.003906 0.828125 -15.203125 C 0.765625 -16.398438 0.765625 -17.5 0.828125 -18.5 C 0.867188 -19.269531 0.96875 -20.269531 1.125 -21.5 C 1.28125 -22.726562 1.53125 -23.929688 1.875 -25.109375 C 2.21875 -26.285156 2.703125 -27.28125 3.328125 -28.09375 C 3.953125 -28.914062 4.765625 -29.289062 5.765625 -29.21875 C 6.429688 -29.1875 6.96875 -28.898438 7.375 -28.359375 C 7.789062 -27.816406 8.128906 -27.144531 8.390625 -26.34375 C 8.648438 -25.550781 8.84375 -24.675781 8.96875 -23.71875 C 9.09375 -22.769531 9.171875 -21.828125 9.203125 -20.890625 C 9.234375 -19.960938 9.238281 -19.109375 9.21875 -18.328125 C 9.207031 -17.546875 9.203125 -16.945312 9.203125 -16.53125 C 9.203125 -15.9375 9.21875 -15.34375 9.25 -14.75 C 9.289062 -14.164062 9.410156 -13.640625 9.609375 -13.171875 C 9.816406 -12.710938 10.140625 -12.34375 10.578125 -12.0625 C 11.015625 -11.78125 11.628906 -11.640625 12.421875 -11.640625 C 13.328125 -11.640625 14.046875 -11.863281 14.578125 -12.3125 C 15.117188 -12.769531 15.519531 -13.335938 15.78125 -14.015625 C 16.039062 -14.691406 16.203125 -15.414062 16.265625 -16.1875 C 16.335938 -16.96875 16.375 -17.707031 16.375 -18.40625 C 16.375 -18.882812 16.375 -19.46875 16.375 -20.15625 C 16.375 -20.851562 16.378906 -21.582031 16.390625 -22.34375 C 16.410156 -23.113281 16.484375 -23.867188 16.609375 -24.609375 C 16.734375 -25.359375 16.925781 -26.035156 17.1875 -26.640625 C 17.445312 -27.242188 17.789062 -27.738281 18.21875 -28.125 C 18.65625 -28.507812 19.21875 -28.703125 19.90625 -28.703125 C 20.769531 -28.703125 21.515625 -28.363281 22.140625 -27.6875 C 22.765625 -27.007812 23.289062 -26.125 23.71875 -25.03125 C 24.15625 -23.9375 24.503906 -22.726562 24.765625 -21.40625 C 25.023438 -20.09375 25.222656 -18.785156 25.359375 -17.484375 C 25.503906 -16.191406 25.601562 -15 25.65625 -13.90625 C 25.707031 -12.8125 25.734375 -11.953125 25.734375 -11.328125 C 25.734375 -9.878906 25.679688 -8.226562 25.578125 -6.375 C 25.472656 -4.519531 25.269531 -2.613281 24.96875 -0.65625 C 24.675781 1.300781 24.234375 3.222656 23.640625 5.109375 C 23.054688 7.003906 22.285156 8.695312 21.328125 10.1875 C 20.378906 11.675781 19.210938 12.867188 17.828125 13.765625 C 16.441406 14.671875 14.78125 15.125 12.84375 15.125 Z M 12.84375 15.125 "/></g></g></g></svg>